<svg width="176" height="145" viewBox="0 0 176 145" fill="none" xmlns="http://www.w3.org/2000/svg">
<path d="M34.5282 135.081C44.6243 132.435 54.4254 128.67 63.7697 123.821C65.6951 122.826 67.2136 125.434 65.2792 126.435C55.6808 131.408 45.5763 135.325 35.2012 138.05C33.1229 138.599 32.4355 135.626 34.5282 135.081Z" fill="#2992C5"/>
<path d="M74.9904 118.749C83.3671 114.366 91.1161 108.939 98.0412 102.583C99.63 101.119 101.87 103.195 100.276 104.65C93.1372 111.2 85.12 116.838 76.4945 121.354C74.5699 122.372 73.0515 119.763 74.9904 118.749Z" fill="#2992C5"/>
<path d="M107.072 93.3133C113.533 86.3538 119.268 78.8613 124.221 70.9365C125.343 69.138 128.119 70.5439 126.997 72.3425C121.896 80.5042 115.951 88.222 109.298 95.3863C107.839 96.9611 105.608 94.8796 107.072 93.3133Z" fill="#2992C5"/>
<path d="M129.431 60.5279C133.784 53.3453 136.715 45.5072 137.955 37.5539C138.082 36.7133 138.746 35.9701 139.684 35.9277C140.51 35.893 141.37 36.5699 141.243 37.4092C139.918 45.9116 136.863 54.2388 132.208 61.9338C131.119 63.7477 128.343 62.3418 129.431 60.5279Z" fill="#2992C5"/>
<path d="M139.396 25.8477C140.282 17.9128 139.364 10.125 136.739 2.86994C136.458 2.09063 137.217 1.15271 138.017 0.912801C138.972 0.628031 139.687 1.16795 139.972 1.93252C142.68 9.39545 143.606 17.5393 142.699 25.7066C142.469 27.6989 139.176 27.8577 139.396 25.8477Z" fill="#2992C5"/>
</svg>
